<svg width="77" height="51" viewBox="0 0 77 51" fill="none" xmlns="http://www.w3.org/2000/svg">
<circle cx="13.7407" cy="48.2983" r="2.19" fill="#FC9DD3" fill-opacity="0.8" stroke="#D1D1D1" stroke-width="0.24"/>
<mask id="path-2-inside-1_1095_4393" fill="white">
<path fill-rule="evenodd" clip-rule="evenodd" d="M8.4 0C3.76081 0 0 3.76081 0 8.4V33.6C0 37.8129 3.1014 41.3014 7.1456 41.907C7.25373 43.9974 8.98292 45.6591 11.1002 45.6591C13.186 45.6591 14.8952 44.0465 15.049 42H68.4C73.0392 42 76.8 38.2392 76.8 33.6V8.4C76.8 3.76081 73.0392 0 68.4 0H8.4Z"/>
</mask>
<path fill-rule="evenodd" clip-rule="evenodd" d="M8.4 0C3.76081 0 0 3.76081 0 8.4V33.6C0 37.8129 3.1014 41.3014 7.1456 41.907C7.25373 43.9974 8.98292 45.6591 11.1002 45.6591C13.186 45.6591 14.8952 44.0465 15.049 42H68.4C73.0392 42 76.8 38.2392 76.8 33.6V8.4C76.8 3.76081 73.0392 0 68.4 0H8.4Z" fill="url(#paint0_linear_1095_4393)" fill-opacity="0.8"/>
<path d="M7.1456 41.907L7.38528 41.8946L7.37515 41.6987L7.18114 41.6696L7.1456 41.907ZM15.049 42V41.76H14.8263L14.8096 41.982L15.049 42ZM0.24 8.4C0.24 3.89336 3.89336 0.24 8.4 0.24V-0.24C3.62826 -0.24 -0.24 3.62826 -0.24 8.4H0.24ZM0.24 33.6V8.4H-0.24V33.6H0.24ZM7.18114 41.6696C3.2527 41.0814 0.24 37.6923 0.24 33.6H-0.24C-0.24 37.9335 2.9501 41.5214 7.11006 42.1443L7.18114 41.6696ZM11.1002 45.4191C9.11132 45.4191 7.48684 43.8581 7.38528 41.8946L6.90592 41.9194C7.02061 44.1367 8.85453 45.8991 11.1002 45.8991V45.4191ZM14.8096 41.982C14.6652 43.9042 13.0595 45.4191 11.1002 45.4191V45.8991C13.3126 45.8991 15.1252 44.1887 15.2883 42.018L14.8096 41.982ZM68.4 41.76H15.049V42.24H68.4V41.76ZM76.56 33.6C76.56 38.1066 72.9066 41.76 68.4 41.76V42.24C73.1717 42.24 77.04 38.3717 77.04 33.6H76.56ZM76.56 8.4V33.6H77.04V8.4H76.56ZM68.4 0.24C72.9067 0.24 76.56 3.89336 76.56 8.4H77.04C77.04 3.62826 73.1717 -0.24 68.4 -0.24V0.24ZM8.4 0.24H68.4V-0.24H8.4V0.24Z" fill="#D1D1D1" mask="url(#path-2-inside-1_1095_4393)"/>
<defs>
<linearGradient id="paint0_linear_1095_4393" x1="73.5" y1="3.5" x2="6" y2="42.5" gradientUnits="userSpaceOnUse">
<stop stop-color="#6BB6FF"/>
<stop offset="1" stop-color="#FB9DD3"/>
</linearGradient>
</defs>
</svg>
