<svg width="25" height="25" viewBox="0 0 25 25" fill="none" xmlns="http://www.w3.org/2000/svg">
<path fill-rule="evenodd" clip-rule="evenodd" d="M8.04444 7.06947C7.75606 6.76165 7.59868 6.35375 7.60556 5.93201C7.61243 5.51026 7.78303 5.10771 8.08129 4.80946C8.37955 4.5112 8.7821 4.3406 9.20384 4.33372C9.62559 4.32684 10.0335 4.48422 10.3413 4.7726L16.9194 11.3523C17.2238 11.657 17.3948 12.07 17.3948 12.5007C17.3948 12.9314 17.2238 13.3445 16.9194 13.6492L10.3413 20.2273C10.0335 20.5157 9.62559 20.673 9.20384 20.6662C8.7821 20.6593 8.37955 20.4887 8.08129 20.1904C7.78303 19.8922 7.61243 19.4896 7.60556 19.0679C7.59868 18.6461 7.75606 18.2382 8.04444 17.9304L13.4741 12.5007L8.04444 7.06947Z" fill="#242933"/>
</svg>
