<svg width="22" height="22" viewBox="0 0 22 22" fill="none" xmlns="http://www.w3.org/2000/svg">
<path fill-rule="evenodd" clip-rule="evenodd" d="M1.375 5.50413C1.37482 4.96183 1.4815 4.42481 1.68894 3.92376C1.89639 3.42271 2.20053 2.96745 2.58399 2.58399C2.96745 2.20053 3.42271 1.89639 3.92376 1.68894C4.42481 1.4815 4.96183 1.37482 5.50413 1.375H16.4959C17.0382 1.37482 17.5752 1.4815 18.0762 1.68894C18.5773 1.89639 19.0326 2.20053 19.416 2.58399C19.7995 2.96745 20.1036 3.42271 20.3111 3.92376C20.5185 4.42481 20.6252 4.96183 20.625 5.50413V16.4959C20.6252 17.0382 20.5185 17.5752 20.3111 18.0762C20.1036 18.5773 19.7995 19.0326 19.416 19.416C19.0326 19.7995 18.5773 20.1036 18.0762 20.3111C17.5752 20.5185 17.0382 20.6252 16.4959 20.625H5.50413C4.96183 20.6252 4.42481 20.5185 3.92376 20.3111C3.42271 20.1036 2.96745 19.7995 2.58399 19.416C2.20053 19.0326 1.89639 18.5773 1.68894 18.0762C1.4815 17.5752 1.37482 17.0382 1.375 16.4959V5.50413ZM8.635 15.7066C9.19875 16.2126 10.098 16.1879 10.6343 15.6585L17.0555 9.32525C17.7636 8.62675 17.7705 7.49513 17.072 6.79525L17.1572 6.88188C16.9939 6.71608 16.799 6.58462 16.5841 6.49522C16.3691 6.40583 16.1385 6.36031 15.9057 6.36133C15.673 6.36236 15.4428 6.40991 15.2286 6.50119C15.0145 6.59247 14.8208 6.72564 14.6589 6.89288L10.1241 11.5954C9.99686 11.7252 9.82376 11.7999 9.64199 11.8035C9.46023 11.8071 9.2843 11.7393 9.152 11.6146L7.55425 10.1296C7.20051 9.80663 6.73631 9.6317 6.25738 9.64091C5.77844 9.65012 5.32131 9.84277 4.98025 10.1791L5.06688 10.0939C4.90237 10.2556 4.77285 10.4495 4.68635 10.6633C4.59985 10.8772 4.5582 11.1066 4.564 11.3372C4.56981 11.5679 4.62293 11.7949 4.72007 12.0041C4.81722 12.2134 4.95632 12.4005 5.12875 12.5538L8.635 15.7066Z" fill="#6AB6FF"/>
</svg>
