<svg width="80" height="70" viewBox="0 0 80 70" fill="none" xmlns="http://www.w3.org/2000/svg">
<rect width="80" height="70" rx="10" fill="#FF7272"/>
<path d="M38.5227 18C35.943 18 33.8679 20.1849 33.8679 22.8319V23.4202H28.6364C27.9103 23.4202 27.3182 24.0242 27.3182 24.7647V26.1092H26V28.7983H28.6364V48.9664C28.6364 51.1775 30.4231 53 32.5909 53H48.4091C50.5769 53 52.3636 51.1775 52.3636 48.9664V28.7983H55V26.1092H53.6818V24.7647C53.6818 24.0242 53.0897 23.4202 52.3636 23.4202H47.1321V22.8319C47.1321 20.1849 45.057 18 42.4773 18H38.5227ZM38.5227 20.7731H42.4773C43.538 20.7731 44.4134 21.6555 44.4134 22.8319V23.4202H36.5866V22.8319C36.5866 21.6555 37.462 20.7731 38.5227 20.7731ZM31.2727 28.7983H38.0284C38.1932 28.8141 38.3528 28.8403 38.5227 28.8403H42.4773C42.6472 28.8403 42.8068 28.8141 42.9716 28.7983H49.7273V48.9664C49.7273 49.7227 49.1506 50.3109 48.4091 50.3109H32.5909C31.8494 50.3109 31.2727 49.7227 31.2727 48.9664V28.7983ZM33.9091 31.4874V47.6218H36.5455V31.4874H33.9091ZM39.1818 31.4874V47.6218H41.8182V31.4874H39.1818ZM44.4545 31.4874V47.6218H47.0909V31.4874H44.4545Z" fill="white"/>
</svg>
