<svg width="20" height="20" viewBox="0 0 20 20" fill="none" xmlns="http://www.w3.org/2000/svg">
<path fill-rule="evenodd" clip-rule="evenodd" d="M0 3.76185C0 1.68424 1.67079 0 3.76185 0H16.2382C18.3158 0 20 1.67079 20 3.76185V16.2382C20 18.3158 18.3292 20 16.2382 20H3.76185C1.68424 20 0 18.3292 0 16.2382V3.76185ZM1.25 3.75732V16.2427C1.25 17.6287 2.37257 18.75 3.75732 18.75H16.2427C17.6287 18.75 18.75 17.6274 18.75 16.2427V3.75732C18.75 2.37133 17.6274 1.25 16.2427 1.25H3.75732C2.37133 1.25 1.25 2.37257 1.25 3.75732Z" fill="#333333"/>
</svg>
