<svg width="21" height="40" viewBox="0 0 21 40" fill="none" xmlns="http://www.w3.org/2000/svg">
<path d="M13.3118 35.0383V34.2821C16.9611 34.1989 20.7087 30.74 20.7087 25.7031C20.7087 21.5877 17.3134 18.0898 13.3118 18.013V11.9782L17.1837 8.08865C17.1838 8.08852 17.1839 8.08839 17.1841 8.08826C18.6512 6.63909 18.924 4.3321 17.8996 2.53904C17.5081 1.84236 16.939 1.26176 16.2504 0.856277C15.5615 0.450709 14.7776 0.234788 13.9783 0.230468H13.9775C13.5948 0.230468 13.1552 0.28473 12.8019 0.395851C10.8213 0.929065 9.48677 2.76204 9.48677 4.81018V10.516L3.9424 16.1134L3.94187 16.1139C2.47494 17.6119 1.47978 19.5074 1.07968 21.5656C0.679601 23.6236 0.892099 25.7537 1.69084 27.6921C3.06307 31.0778 6.0397 33.4234 9.48677 34.0659V35.0383C9.48677 35.4281 9.13626 35.7929 8.73211 35.7929H6.06494H5.93054V35.9273V39.4836V39.618H6.06494H8.73211C11.2054 39.618 13.3118 37.5855 13.3118 35.0383ZM14.6244 4.4482L14.6243 4.44822L14.6263 4.45163C14.7117 4.5966 14.7462 4.76593 14.7243 4.93275C14.7024 5.09956 14.6255 5.25427 14.5056 5.37232L14.5055 5.37223L14.5015 5.37654L13.3118 6.65546V4.81018C13.3118 4.44709 13.4801 4.19067 13.7825 4.10391C14.1171 4.01302 14.4606 4.15037 14.6244 4.4482ZM6.62465 18.8255L9.48677 15.8153V18.9633C7.7627 20.1261 6.47051 22.0866 6.00583 23.9096L5.97295 24.0386L6.1016 24.0727L9.48677 24.9708V30.1131C8.55225 29.8361 7.68834 29.3592 6.95534 28.7146C6.17839 28.0314 5.56946 27.1782 5.17586 26.2213C4.14675 23.6743 4.70536 20.7797 6.62314 18.8271L6.62315 18.8271L6.62465 18.8255ZM13.3118 21.7329C15.2528 21.815 16.9193 23.6641 16.9193 25.7031C16.9193 28.6634 14.8366 30.3589 13.3118 30.4543V21.7329Z" fill="url(#paint0_linear_393_1936)" stroke="url(#paint1_linear_393_1936)" stroke-width="0.268801"/>
<defs>
<linearGradient id="paint0_linear_393_1936" x1="-1.87242" y1="23.0114" x2="25.2764" y2="23.0786" gradientUnits="userSpaceOnUse">
<stop stop-color="#8EAFF3"/>
<stop offset="1" stop-color="#A3ACED"/>
</linearGradient>
<linearGradient id="paint1_linear_393_1936" x1="-0.998821" y1="21.869" x2="22.454" y2="22.0706" gradientUnits="userSpaceOnUse">
<stop stop-color="#8EAFF3"/>
<stop offset="1" stop-color="#A3ACED"/>
</linearGradient>
</defs>
</svg>
