<svg width="94" height="34" viewBox="0 0 94 34" fill="none" xmlns="http://www.w3.org/2000/svg">
<path d="M26.8612 1.1475V33.3008H21.0878L6.96523 12.8719H6.69877V33.3008H0.0371726V1.1475H5.89937L19.9331 21.5764H20.244V1.1475H26.8612ZM32.2793 33.3008V1.1475H38.9409V27.7939H52.797V33.3008H32.2793ZM63.7664 1.1475V33.3008H57.1048V1.1475H63.7664ZM86.6379 10.3405C86.3714 7.80909 84.3285 6.29913 81.0865 6.29913C77.7113 6.29913 75.8461 7.8535 75.8017 9.98521C75.7573 12.2946 78.1999 13.3604 80.9533 13.9822L83.84 14.6927C89.3469 15.9362 93.4771 18.7341 93.4771 24.1078C93.4771 30.0144 88.8584 33.7449 81.0421 33.7449C73.2703 33.7449 68.2963 30.1476 68.1186 23.264H74.6026C74.8247 26.506 77.4005 28.1491 80.9533 28.1491C84.4618 28.1491 86.7267 26.506 86.7267 24.1078C86.7267 21.9317 84.7282 20.9102 81.2198 20.022L77.7113 19.1782C72.2932 17.8459 68.9625 15.1368 68.9625 10.4293C68.9625 4.56711 74.1141 0.703389 81.131 0.703389C88.2367 0.703389 92.9442 4.65593 93.033 10.3405H86.6379Z" fill="url(#paint0_linear_393_1940)"/>
<defs>
<linearGradient id="paint0_linear_393_1940" x1="-2.67188" y1="17.3008" x2="95.3281" y2="17.3008" gradientUnits="userSpaceOnUse">
<stop stop-color="#A7ABEC"/>
<stop offset="1" stop-color="#E89FD8"/>
</linearGradient>
</defs>
</svg>
