<svg width="24" height="36" viewBox="0 0 24 36" fill="none" xmlns="http://www.w3.org/2000/svg">
<path d="M17.7646 0.718017H17.796H23.486H23.5792L23.5498 0.806468L12.1698 34.9464L12.1545 34.9924H12.1061H6.41611H6.32381L6.35216 34.9045L15.5393 6.43837C12.6103 8.36031 9.1825 9.38606 5.67644 9.38741H5.67642L4.9939 9.38741C4.99382 9.38741 4.99374 9.38741 4.99367 9.38741H4.99362V9.32021C4.10476 9.32386 3.23695 9.04987 2.51133 8.53648C1.78571 8.0231 1.23851 7.29594 0.946114 6.45654C0.653722 5.61713 0.630734 4.70738 0.88036 3.85428C1.12999 3.00118 1.63977 2.24732 2.33853 1.69794C3.0373 1.14856 3.89017 0.831094 4.77808 0.78985C5.66599 0.748606 6.54462 0.985648 7.2913 1.46788C8.03798 1.95012 8.61545 2.65348 8.94309 3.47976C9.26152 4.28285 9.3285 5.1631 9.13616 6.00413L17.7646 0.718017ZM17.7646 0.718017L17.7445 0.742126C15.5453 3.37371 12.5481 5.21488 9.20877 5.98751L17.7646 0.718017Z" fill="url(#paint0_linear_393_1937)" stroke="url(#paint1_linear_393_1937)" stroke-width="0.1344"/>
<defs>
<linearGradient id="paint0_linear_393_1937" x1="0.708618" y1="18.5933" x2="25.371" y2="17.8541" gradientUnits="userSpaceOnUse">
<stop stop-color="#EC9FD7"/>
<stop offset="1" stop-color="#FD9CD2"/>
</linearGradient>
<linearGradient id="paint1_linear_393_1937" x1="1.17902" y1="17.8541" x2="23.4222" y2="17.8541" gradientUnits="userSpaceOnUse">
<stop stop-color="#EC9FD7"/>
<stop offset="1" stop-color="#FD9CD2"/>
</linearGradient>
</defs>
</svg>
