<svg width="60" height="60" viewBox="0 0 60 60" fill="none" xmlns="http://www.w3.org/2000/svg">
<rect x="0.600098" y="0.400391" width="58.8" height="58.8" rx="14.28" fill="white"/>
<path d="M13.3163 31.0045C13.3163 31.8713 11.9817 33.3573 9.57379 33.3573C6.8082 33.3573 5.07454 31.5686 5.07454 28.3627C5.07454 25.1568 6.8082 23.3681 9.57379 23.3681C11.9817 23.3681 13.3163 24.4688 13.3163 25.6934C13.3163 26.4227 12.8347 27.0418 12.1743 27.0418C10.7158 27.0418 11.0048 24.3725 9.14726 24.3725C8.01901 24.3725 7.37232 25.5283 7.37232 27.4821C7.37232 29.1607 8.22539 31.6512 10.647 31.6512C12.0642 31.6512 12.7659 30.8118 13.1237 30.8118C13.2337 30.8118 13.3163 30.8669 13.3163 31.0045ZM14.6157 26.3263C14.6157 24.6202 13.7213 24.2349 13.7213 23.5745C13.7213 22.9966 14.5194 22.6939 15.2073 22.6939C16.3493 22.6939 16.8034 23.3406 16.8034 24.7303V29.7386C16.8034 31.5411 17.5326 31.8988 17.5326 32.518C17.5326 32.7656 17.3813 33.1509 16.8034 33.1509H14.6157C14.024 33.1509 13.8727 32.7656 13.8727 32.518C13.8727 31.8988 14.6157 31.5411 14.6157 29.7386V26.3263ZM21.564 26.1062C23.2151 26.1062 24.4809 26.8217 24.4809 27.9499C24.4809 29.9588 21.2613 29.8487 21.2613 31.1421C21.2613 31.486 21.564 31.9539 22.4033 31.9539C23.5591 31.9539 24.0957 31.3622 24.3984 31.3622C24.5497 31.3622 24.6048 31.486 24.6048 31.5686C24.6048 32.2566 23.2839 33.3573 21.564 33.3573C19.3763 33.3573 18.0003 31.9539 18.0003 29.7386C18.0003 27.5096 19.3763 26.1062 21.564 26.1062ZM21.3576 27.0005C20.5871 27.0005 20.188 27.7435 20.188 29.0369C20.188 29.6148 20.2844 30.1101 20.4495 30.5367C21.0549 29.4497 22.2382 29.2158 22.2382 28.005C22.2382 27.5647 21.9905 27.0005 21.3576 27.0005ZM28.3238 29.7386C28.3238 31.5411 29.0531 31.8988 29.0531 32.518C29.0531 32.7656 28.9017 33.1509 28.3238 33.1509H26.1361C25.5445 33.1509 25.3931 32.7656 25.3931 32.518C25.3931 31.8988 26.1361 31.5411 26.1361 29.7386C26.1361 28.0325 25.2418 27.6335 25.2418 26.9455C25.2418 26.3814 26.0398 26.1062 26.7278 26.1062C27.6083 26.1062 28.0762 26.4777 28.255 27.3032C28.7916 26.574 29.5621 26.1062 30.3602 26.1062C31.6123 26.1062 32.2039 27.1657 32.2039 27.9499C32.2039 28.6241 31.9012 29.1057 31.3233 29.1057C30.1125 29.1057 30.4978 27.3583 29.7135 27.3583C29.0118 27.3583 28.3238 28.5003 28.3238 29.7386ZM32.479 23.5745C32.479 22.9966 33.277 22.6939 33.965 22.6939C35.107 22.6939 35.5611 23.3406 35.5611 24.7303V28.2939L36.1389 28.0738C36.7031 27.8536 37.4048 27.6472 37.4048 26.9868C37.4048 26.4089 37.8451 26.1062 38.6156 26.1062C39.3724 26.1062 39.8264 26.4502 39.8264 26.8767C39.8264 27.262 39.5787 27.7023 38.9183 27.9774L38.3404 28.1976C37.735 28.459 37.7212 28.803 38.1615 29.5873L38.4367 30.0688C39.3724 31.7612 40.5006 31.6236 40.5006 32.2428C40.5006 32.8207 39.7301 33.3573 38.9871 33.3573C37.8864 33.3573 37.4048 32.7244 36.9645 31.8988L35.5611 29.3121V29.7386C35.5611 31.5411 36.2903 31.8988 36.2903 32.518C36.2903 32.7656 36.1389 33.1509 35.5611 33.1509H33.3733C32.7817 33.1509 32.6303 32.7656 32.6303 32.518C32.6303 31.8988 33.3733 31.5411 33.3733 29.7386V26.3263C33.3733 24.6202 32.479 24.2349 32.479 23.5745ZM44.393 26.1062C46.0441 26.1062 47.3099 26.8217 47.3099 27.9499C47.3099 29.9588 44.0903 29.8487 44.0903 31.1421C44.0903 31.486 44.393 31.9539 45.2323 31.9539C46.388 31.9539 46.9246 31.3622 47.2273 31.3622C47.3787 31.3622 47.4337 31.486 47.4337 31.5686C47.4337 32.2566 46.1129 33.3573 44.393 33.3573C42.2052 33.3573 40.8293 31.9539 40.8293 29.7386C40.8293 27.5096 42.2052 26.1062 44.393 26.1062ZM44.1866 27.0005C43.416 27.0005 43.017 27.7435 43.017 29.0369C43.017 29.6148 43.1133 30.1101 43.2785 30.5367C43.8839 29.4497 45.0672 29.2158 45.0672 28.005C45.0672 27.5647 44.8195 27.0005 44.1866 27.0005ZM51.1528 29.7386C51.1528 31.5411 51.882 31.8988 51.882 32.518C51.882 32.7656 51.7307 33.1509 51.1528 33.1509H48.9651C48.3734 33.1509 48.2221 32.7656 48.2221 32.518C48.2221 31.8988 48.9651 31.5411 48.9651 29.7386C48.9651 28.0325 48.0707 27.6335 48.0707 26.9455C48.0707 26.3814 48.8688 26.1062 49.5567 26.1062C50.4373 26.1062 50.9051 26.4777 51.084 27.3032C51.6206 26.574 52.3911 26.1062 53.1892 26.1062C54.4413 26.1062 55.0329 27.1657 55.0329 27.9499C55.0329 28.6241 54.7302 29.1057 54.1523 29.1057C52.9415 29.1057 53.3268 27.3583 52.5425 27.3583C51.8408 27.3583 51.1528 28.5003 51.1528 29.7386Z" fill="url(#paint0_linear_735_12684)"/>
<defs>
<linearGradient id="paint0_linear_735_12684" x1="30.0008" y1="31.9027" x2="30.0008" y2="25.1407" gradientUnits="userSpaceOnUse">
<stop stop-color="#479CF7"/>
<stop offset="1" stop-color="#98ADFF"/>
</linearGradient>
</defs>
</svg>
