<svg width="26" height="23" viewBox="0 0 26 23" fill="none" xmlns="http://www.w3.org/2000/svg">
<path d="M22.4803 11.4481H10.4419M19.9459 15.2497L23.7475 11.4481L19.9459 7.64655M13.6099 5.11215V3.84495C13.6099 3.17278 13.3429 2.52815 12.8676 2.05286C12.3923 1.57756 11.7476 1.31055 11.0755 1.31055H4.73948C4.06731 1.31055 3.42268 1.57756 2.94739 2.05286C2.47209 2.52815 2.20508 3.17278 2.20508 3.84495V19.0513C2.20508 19.7235 2.47209 20.3681 2.94739 20.8434C3.42268 21.3187 4.06731 21.5857 4.73948 21.5857H11.0755C11.7476 21.5857 12.3923 21.3187 12.8676 20.8434C13.3429 20.3681 13.6099 19.7235 13.6099 19.0513V17.7841" stroke="#FF5B5B" stroke-width="2.5344" stroke-linecap="round" stroke-linejoin="round"/>
</svg>
