<svg width="100%" height="100%" viewBox="0 0 15 15" fill="current" xmlns="http://www.w3.org/2000/svg">
<path id="Vector" d="M13.446 14.58L8.343 9.477C7.938 9.801 7.47225 10.0575 6.94575 10.2465C6.41925 10.4355 5.859 10.53 5.265 10.53C3.7935 10.53 2.54826 10.0202 1.52928 9.00072C0.5103 7.9812 0.000540429 6.73596 4.28571e-07 5.265C-0.000539571 3.79404 0.50922 2.5488 1.52928 1.52928C2.54934 0.50976 3.79458 0 5.265 0C6.73542 0 7.98093 0.50976 9.00153 1.52928C10.0221 2.5488 10.5316 3.79404 10.53 5.265C10.53 5.859 10.4355 6.41925 10.2465 6.94575C10.0575 7.47225 9.801 7.938 9.477 8.343L14.58 13.446L13.446 14.58ZM5.265 8.91C6.2775 8.91 7.13826 8.55576 7.84728 7.84728C8.5563 7.1388 8.91054 6.27804 8.91 5.265C8.90946 4.25196 8.55522 3.39147 7.84728 2.68353C7.13934 1.97559 6.27858 1.62108 5.265 1.62C4.25142 1.61892 3.39093 1.97343 2.68353 2.68353C1.97613 3.39363 1.62162 4.25412 1.62 5.265C1.61838 6.27588 1.97289 7.13664 2.68353 7.84728C3.39417 8.55792 4.25466 8.91216 5.265 8.91Z" fill="current"/>
</svg>
