<svg width="10" height="13" viewBox="0 0 10 13" fill="none" xmlns="http://www.w3.org/2000/svg">
<path id="Vector" d="M9.99 0.686685C9.97192 0.57081 9.9308 0.460421 9.86941 0.362962C9.80802 0.265503 9.72778 0.183239 9.6341 0.121715C9.54042 0.0601911 9.43549 0.0208382 9.32637 0.00630932C9.21725 -0.00821959 9.10648 0.00241328 9.00154 0.037491L3.61692 1.83469C3.46035 1.88691 3.32351 1.99122 3.22636 2.1324C3.12921 2.27359 3.07685 2.44425 3.07692 2.61947V9.30206C2.73036 9.02438 2.30618 8.87985 1.87311 8.89187C1.44005 8.9039 1.02347 9.07178 0.690872 9.36831C0.358274 9.66485 0.129142 10.0727 0.0405986 10.5257C-0.0479445 10.9787 0.00928924 11.4504 0.203027 11.8643C0.396765 12.2783 0.715656 12.6102 1.10803 12.8064C1.50041 13.0025 1.94329 13.0514 2.36491 12.945C2.78653 12.8387 3.1622 12.5834 3.43104 12.2205C3.69988 11.8576 3.84616 11.4084 3.84616 10.9456V5.08477L9.23077 3.28675V7.65853C8.8842 7.38085 8.46002 7.23632 8.02696 7.24834C7.59389 7.26037 7.17732 7.42825 6.84472 7.72478C6.51212 8.02132 6.28299 8.42914 6.19444 8.88216C6.1059 9.33519 6.16313 9.80688 6.35687 10.2208C6.55061 10.6348 6.8695 10.9667 7.26188 11.1628C7.65426 11.359 8.09713 11.4078 8.51876 11.3015C8.94038 11.1952 9.31604 10.9399 9.58489 10.577C9.85373 10.2141 10 9.76486 10 9.30206V0.821454C10 0.775983 9.99667 0.73106 9.99 0.686685Z" fill="url(#paint0_linear_758_4660)"/>
<defs>
<linearGradient id="paint0_linear_758_4660" x1="8.91803" y1="0.533582" x2="0.74266" y2="11.8692" gradientUnits="userSpaceOnUse">
<stop stop-color="#66B6FF"/>
<stop offset="1" stop-color="#FF9BD1"/>
</linearGradient>
</defs>
</svg>
