<svg width="29" height="35" viewBox="0 0 29 35" fill="none" xmlns="http://www.w3.org/2000/svg">
<path d="M12.5227 0C9.943 0 7.8679 2.18487 7.8679 4.83193V5.42017H2.63636C1.91033 5.42017 1.31818 6.02416 1.31818 6.76471V8.10924H0V10.7983H2.63636V30.9664C2.63636 33.1775 4.42312 35 6.59091 35H22.4091C24.5769 35 26.3636 33.1775 26.3636 30.9664V10.7983H29V8.10924H27.6818V6.76471C27.6818 6.02416 27.0897 5.42017 26.3636 5.42017H21.1321V4.83193C21.1321 2.18487 19.057 0 16.4773 0H12.5227ZM12.5227 2.77311H16.4773C17.538 2.77311 18.4134 3.65546 18.4134 4.83193V5.42017H10.5866V4.83193C10.5866 3.65546 11.462 2.77311 12.5227 2.77311ZM5.27273 10.7983H12.0284C12.1932 10.8141 12.3528 10.8403 12.5227 10.8403H16.4773C16.6472 10.8403 16.8068 10.8141 16.9716 10.7983H23.7273V30.9664C23.7273 31.7227 23.1506 32.3109 22.4091 32.3109H6.59091C5.84943 32.3109 5.27273 31.7227 5.27273 30.9664V10.7983ZM7.90909 13.4874V29.6218H10.5455V13.4874H7.90909ZM13.1818 13.4874V29.6218H15.8182V13.4874H13.1818ZM18.4545 13.4874V29.6218H21.0909V13.4874H18.4545Z" fill="white"/>
</svg>
