<svg width="18" height="21" viewBox="0 0 18 21" fill="none" xmlns="http://www.w3.org/2000/svg">
<path d="M9 20.5C9.6193 20.5008 10.2235 20.3086 10.7285 19.9502C11.2335 19.5917 11.6143 19.0849 11.818 18.5H6.182C6.38566 19.0849 6.76648 19.5917 7.27151 19.9502C7.77654 20.3086 8.3807 20.5008 9 20.5ZM16 13.086V8.5C16 5.283 13.815 2.573 10.855 1.758C10.562 1.02 9.846 0.5 9 0.5C8.154 0.5 7.438 1.02 7.145 1.758C4.185 2.574 2 5.283 2 8.5V13.086L0.293001 14.793C0.199958 14.8857 0.126171 14.9959 0.0758854 15.1172C0.0256001 15.2386 -0.000189449 15.3687 1.04767e-06 15.5V16.5C1.04767e-06 16.7652 0.105358 17.0196 0.292894 17.2071C0.480431 17.3946 0.734785 17.5 1 17.5H17C17.2652 17.5 17.5196 17.3946 17.7071 17.2071C17.8946 17.0196 18 16.7652 18 16.5V15.5C18.0002 15.3687 17.9744 15.2386 17.9241 15.1172C17.8738 14.9959 17.8 14.8857 17.707 14.793L16 13.086Z" fill="#3F3F3F"/>
</svg>
