<svg width="24" height="22" viewBox="0 0 24 22" fill="none" xmlns="http://www.w3.org/2000/svg">
<path d="M12.0579 0.652588C5.83546 0.652588 0.817383 4.66701 0.817383 9.54057C0.817383 12.704 2.9049 15.4739 6.03619 17.0556L4.97637 21.0139C4.95638 21.0733 4.95331 21.1369 4.96749 21.1979C4.98167 21.2589 5.01255 21.3147 5.05666 21.3591C5.12098 21.4158 5.20373 21.4472 5.2895 21.4474C5.3606 21.4417 5.42807 21.4136 5.48219 21.3672L10.0426 18.2921C10.7158 18.385 11.3944 18.4333 12.0739 18.4366C18.2883 18.4366 23.3144 14.4222 23.3144 9.54057C23.3144 4.65898 18.2723 0.652588 12.0579 0.652588Z" fill="#392020"/>
</svg>
