<svg width="22" height="20" viewBox="0 0 22 20" fill="none" xmlns="http://www.w3.org/2000/svg">
<path d="M10.5084 0.177734C16.3133 0.177734 21.0183 3.87311 21.0183 8.43282C21.0183 12.9915 16.3133 16.6869 10.5094 16.6869C9.93155 16.6859 9.3543 16.6488 8.78097 16.576L4.36924 19.4836C3.86782 19.7509 3.69067 19.7217 3.89684 19.0671L4.7896 15.3576C1.90716 13.8851 0.000549316 11.3334 0.000549316 8.43282C0.000549316 3.87412 4.70452 0.177734 10.5094 0.177734M16.4224 8.30675L17.8937 6.87056C17.9786 6.78171 18.0259 6.66313 18.0258 6.53979C18.0256 6.41645 17.978 6.29799 17.8929 6.20935C17.8078 6.12071 17.6918 6.06882 17.5695 6.0646C17.4472 6.06039 17.328 6.10418 17.2371 6.18675L15.3075 8.06873V6.51352C15.3075 6.38727 15.2577 6.26619 15.1691 6.17691C15.0805 6.08764 14.9604 6.03748 14.8351 6.03748C14.7098 6.03748 14.5896 6.08764 14.501 6.17691C14.4125 6.26619 14.3627 6.38727 14.3627 6.51352V9.09242C14.346 9.16611 14.346 9.24263 14.3627 9.31632V10.7676C14.3627 10.8939 14.4125 11.015 14.501 11.1043C14.5896 11.1935 14.7098 11.2437 14.8351 11.2437C14.9604 11.2437 15.0805 11.1935 15.1691 11.1043C15.2577 11.015 15.3075 10.8939 15.3075 10.7676V9.39297L15.7348 8.97643L17.164 11.0268C17.1997 11.078 17.2451 11.1216 17.2975 11.1552C17.3499 11.1887 17.4083 11.2115 17.4695 11.2223C17.5306 11.233 17.5933 11.2316 17.6539 11.2179C17.7145 11.2043 17.7718 11.1788 17.8226 11.1428C17.8734 11.1069 17.9167 11.0612 17.95 11.0084C17.9832 10.9556 18.0059 10.8967 18.0165 10.835C18.0272 10.7734 18.0258 10.7103 18.0122 10.6492C17.9987 10.5882 17.9734 10.5304 17.9377 10.4792L16.4224 8.30675ZM13.4619 10.2472H12.0007V6.52865C11.9951 6.40632 11.9429 6.29087 11.855 6.20629C11.7672 6.12171 11.6503 6.07452 11.5288 6.07452C11.4073 6.07452 11.2904 6.12171 11.2025 6.20629C11.1146 6.29087 11.0625 6.40632 11.0569 6.52865V10.7233C11.0569 10.9855 11.2671 11.1993 11.5283 11.1993H13.4619C13.5872 11.1993 13.7074 11.1492 13.796 11.0599C13.8846 10.9706 13.9343 10.8495 13.9343 10.7233C13.9343 10.597 13.8846 10.4759 13.796 10.3867C13.7074 10.2974 13.5872 10.2472 13.4619 10.2472ZM7.59997 9.14688L8.29656 7.42426L8.9351 9.14587L7.59997 9.14688ZM10.1251 9.63805L10.1271 9.62191C10.1268 9.50201 10.0813 9.38668 10 9.29917L8.95311 6.4752C8.90923 6.34062 8.82563 6.22275 8.7135 6.13733C8.60137 6.0519 8.46603 6.00299 8.32558 5.99714C8.18423 5.99708 8.04616 6.0401 7.92952 6.12056C7.81288 6.20102 7.72312 6.31515 7.67203 6.44797L6.00863 10.5579C5.96124 10.6748 5.96188 10.8058 6.0104 10.9222C6.05892 11.0387 6.15135 11.1309 6.26734 11.1786C6.38334 11.2264 6.51341 11.2257 6.62894 11.1768C6.74446 11.1279 6.83598 11.0348 6.88336 10.9179L7.21564 10.098H9.28739L9.58565 10.9048C9.60599 10.9651 9.63814 11.0207 9.68019 11.0683C9.72224 11.1158 9.77334 11.1544 9.83045 11.1817C9.88757 11.209 9.94953 11.2245 10.0127 11.2272C10.0758 11.2299 10.1389 11.2198 10.1981 11.1976C10.2573 11.1753 10.3115 11.1413 10.3575 11.0975C10.4034 11.0537 10.4401 11.0011 10.4655 10.9428C10.4909 10.8845 10.5044 10.8216 10.5053 10.7579C10.5061 10.6942 10.4942 10.631 10.4704 10.572L10.1251 9.63805ZM6.79929 6.5337C6.79956 6.47119 6.78755 6.40925 6.76397 6.35144C6.74038 6.29363 6.70569 6.24109 6.66187 6.19685C6.61806 6.1526 6.566 6.11753 6.50868 6.09364C6.45136 6.06975 6.38992 6.05752 6.32789 6.05765H3.08015C2.95486 6.05765 2.83471 6.10781 2.74611 6.19708C2.65752 6.28636 2.60775 6.40744 2.60775 6.5337C2.60775 6.65995 2.65752 6.78103 2.74611 6.87031C2.83471 6.95958 2.95486 7.00974 3.08015 7.00974H4.24113V10.7777C4.24113 10.904 4.2909 11.0251 4.37949 11.1143C4.46809 11.2036 4.58824 11.2538 4.71353 11.2538C4.83882 11.2538 4.95898 11.2036 5.04757 11.1143C5.13616 11.0251 5.18593 10.904 5.18593 10.7777V7.00974H6.32689C6.389 7.01 6.45055 6.99787 6.50799 6.97404C6.56542 6.95022 6.6176 6.91516 6.66152 6.8709C6.70544 6.82665 6.74023 6.77406 6.76387 6.71618C6.78752 6.65831 6.79956 6.59628 6.79929 6.5337Z" fill="#452020"/>
<ellipse cx="10.4128" cy="8.71654" rx="9.64117" ry="5.01341" fill="#452020"/>
</svg>
