<svg width="308" height="85" viewBox="0 0 308 85" fill="none" xmlns="http://www.w3.org/2000/svg">
<path d="M102.051 66.7769V65.5953C107.753 65.4653 113.608 60.0609 113.608 52.1908C113.608 45.7605 108.303 40.2951 102.051 40.175V30.7457L108.1 24.6683C108.101 24.6681 108.101 24.668 108.101 24.6678C110.393 22.4034 110.82 18.7987 109.219 15.997C108.607 14.9085 107.718 14.0014 106.642 13.3678C105.566 12.7341 104.341 12.3968 103.092 12.39H103.091C102.493 12.39 101.806 12.4748 101.254 12.6484C98.1592 13.4816 96.0739 16.3456 96.0739 19.5458V28.461L87.4109 37.2069L87.41 37.2077C85.118 39.5484 83.563 42.5101 82.9379 45.7259C82.3127 48.9415 82.6448 52.2698 83.8928 55.2986C86.0369 60.5887 90.6879 64.2536 96.0739 65.2575V66.7769C96.0739 67.3859 95.5263 67.956 94.8948 67.956H90.7273H90.5173V68.166V73.7226V73.9326H90.7273H94.8948C98.7593 73.9326 102.051 70.7569 102.051 66.7769ZM104.101 18.9802L104.101 18.9802L104.105 18.9855C104.238 19.212 104.292 19.4766 104.258 19.7373C104.223 19.9979 104.103 20.2397 103.916 20.4241L103.916 20.424L103.909 20.4307L102.051 22.429V19.5458C102.051 18.9784 102.314 18.5778 102.786 18.4422C103.309 18.3002 103.846 18.5148 104.101 18.9802ZM91.6019 41.4445L96.0739 36.7412V41.6598C93.3801 43.4767 91.361 46.54 90.635 49.3884L90.5836 49.5899L90.7846 49.6432L96.0739 51.0465V59.0813C94.6138 58.6486 93.2639 57.9034 92.1186 56.8962C90.9046 55.8287 89.9532 54.4956 89.3382 53.0005C87.7302 49.0207 88.603 44.498 91.5995 41.447L91.5995 41.447L91.6019 41.4445ZM102.051 45.9874C105.083 46.1157 107.687 49.0049 107.687 52.1908C107.687 56.8162 104.433 59.4654 102.051 59.6145V45.9874Z" fill="url(#paint0_linear_393_1917)" stroke="url(#paint1_linear_393_1917)" stroke-width="0.42"/>
<path d="M298.119 16.2753H298.07L298.039 16.3129C294.602 20.4248 289.919 23.3016 284.701 24.5088C284.993 23.189 284.883 21.8106 284.384 20.5518C283.864 19.2404 282.947 18.1241 281.762 17.3587C280.577 16.5934 279.183 16.2172 277.774 16.2826C276.364 16.3481 275.011 16.8519 273.902 17.7239C272.793 18.5958 271.984 19.7922 271.588 21.1462C271.191 22.5001 271.228 23.944 271.692 25.2762C272.156 26.6084 273.024 27.7625 274.176 28.5773C275.328 29.392 276.705 29.8269 278.116 29.8211C278.116 29.8211 278.116 29.8211 278.116 29.8211L279.182 29.8211H279.182C284.66 29.819 290.016 28.2163 294.593 25.2133L280.238 69.6914L280.194 69.8286H280.338H289.229H289.304L289.328 69.7568L307.109 16.4135L307.155 16.2753H307.01H298.119Z" fill="url(#paint2_linear_393_1917)" stroke="url(#paint3_linear_393_1917)" stroke-width="0.21"/>
<path d="M163.845 17.7606V68H154.824L132.758 36.08H132.342V68H121.933V17.7606H131.093L153.02 49.6807H153.506V17.7606H163.845ZM172.311 68V17.7606H182.72V59.3955H204.37V68H172.311ZM221.51 17.7606V68H211.101V17.7606H221.51ZM257.246 32.1247C256.83 28.1694 253.638 25.81 248.572 25.81C243.298 25.81 240.384 28.2387 240.315 31.5695C240.245 35.1779 244.062 36.8433 248.364 37.8148L252.874 38.925C261.479 40.868 267.932 45.2396 267.932 53.636C267.932 62.865 260.716 68.6939 248.503 68.6939C236.359 68.6939 228.588 63.0732 228.31 52.3176H238.441C238.788 57.3831 242.813 59.9506 248.364 59.9506C253.846 59.9506 257.385 57.3831 257.385 53.636C257.385 50.2358 254.262 48.6398 248.78 47.252L243.298 45.9335C234.833 43.8518 229.628 39.6189 229.628 32.2634C229.628 23.1038 237.678 17.0667 248.642 17.0667C259.744 17.0667 267.1 23.2426 267.239 32.1247H257.246Z" fill="url(#paint4_linear_393_1917)"/>
<path d="M4.23287 68V17.7606H23.94C35.3896 17.7606 41.9124 24.7692 41.9124 34.6921C41.9124 44.7539 35.2508 51.6236 23.6625 51.6236H14.6416V68H4.23287ZM14.6416 43.2273H21.9971C28.1729 43.2273 31.1567 39.7577 31.1567 34.6921C31.1567 29.696 28.1729 26.2958 21.9971 26.2958H14.6416V43.2273ZM48.5046 68V17.7606H58.9133V59.3955H80.5634V68H48.5046Z" fill="url(#paint5_linear_393_1917)"/>
<defs>
<linearGradient id="paint0_linear_393_1917" x1="78.3252" y1="47.985" x2="120.745" y2="48.09" gradientUnits="userSpaceOnUse">
<stop stop-color="#8EAFF3"/>
<stop offset="1" stop-color="#A3ACED"/>
</linearGradient>
<linearGradient id="paint1_linear_393_1917" x1="79.6902" y1="46.2" x2="116.335" y2="46.515" gradientUnits="userSpaceOnUse">
<stop stop-color="#8EAFF3"/>
<stop offset="1" stop-color="#A3ACED"/>
</linearGradient>
<linearGradient id="paint2_linear_393_1917" x1="271.42" y1="44.2053" x2="309.955" y2="43.0503" gradientUnits="userSpaceOnUse">
<stop stop-color="#EC9FD7"/>
<stop offset="1" stop-color="#FD9CD2"/>
</linearGradient>
<linearGradient id="paint3_linear_393_1917" x1="272.155" y1="43.0503" x2="306.91" y2="43.0503" gradientUnits="userSpaceOnUse">
<stop stop-color="#EC9FD7"/>
<stop offset="1" stop-color="#FD9CD2"/>
</linearGradient>
<linearGradient id="paint4_linear_393_1917" x1="117.7" y1="42.5" x2="270.7" y2="42.5" gradientUnits="userSpaceOnUse">
<stop stop-color="#A7ABEC"/>
<stop offset="1" stop-color="#E89FD8"/>
</linearGradient>
<linearGradient id="paint5_linear_393_1917" x1="4.24242" y1="46.3923" x2="81.5606" y2="46.0715" gradientUnits="userSpaceOnUse">
<stop stop-color="#69B6FF"/>
<stop offset="1" stop-color="#8BB0F4"/>
</linearGradient>
</defs>
</svg>
