<svg width="14" height="24" viewBox="0 0 14 24" fill="none" xmlns="http://www.w3.org/2000/svg">
<path d="M4.43249 12.0038L4.5032 11.9331L12.8284 3.60787C12.8286 3.60766 12.8288 3.60745 12.829 3.60724C13.1168 3.30892 13.2761 2.90955 13.2725 2.49502C13.2689 2.0802 13.1025 1.68338 12.8091 1.39005C12.5158 1.09672 12.119 0.930328 11.7042 0.926723C11.2896 0.92312 10.8903 1.08235 10.592 1.37014C10.5917 1.37035 10.5915 1.37057 10.5913 1.37078L1.07689 10.8852C1.07689 10.8852 1.07688 10.8852 1.07688 10.8852C0.780288 11.1819 0.613672 11.5842 0.613672 12.0038C0.613672 12.4233 0.780288 12.8256 1.07688 13.1223L4.43249 12.0038ZM4.43249 12.0038L4.5032 12.0745L12.8296 20.4009C12.8296 20.4009 12.8296 20.4009 12.8296 20.4009C13.1262 20.6976 13.2928 21.0999 13.2928 21.5194C13.2928 21.9389 13.1262 22.3413 12.8296 22.638C12.5329 22.9346 12.1306 23.1012 11.7111 23.1012C11.2916 23.1012 10.8892 22.9346 10.5925 22.638C10.5925 22.638 10.5925 22.638 10.5925 22.638L1.07689 13.1223L4.43249 12.0038Z" fill="black" stroke="white" stroke-width="0.2"/>
</svg>
