<svg width="197" height="55" viewBox="0 0 197 55" fill="none" xmlns="http://www.w3.org/2000/svg">
<path d="M65.3118 43.0383V42.2821C68.9611 42.1989 72.7087 38.74 72.7087 33.7031C72.7087 29.5877 69.3134 26.0898 65.3118 26.013V19.9782L69.1837 16.0886C69.1838 16.0885 69.1839 16.0884 69.1841 16.0883C70.6512 14.6391 70.924 12.3321 69.8996 10.539C69.5081 9.84236 68.939 9.26176 68.2504 8.85628C67.5615 8.45071 66.7776 8.23479 65.9783 8.23047H65.9775C65.5948 8.23047 65.1552 8.28473 64.8019 8.39585C62.8213 8.92907 61.4868 10.762 61.4868 12.8102V18.516L55.9424 24.1134L55.9419 24.1139C54.4749 25.6119 53.4798 27.5074 53.0797 29.5656C52.6796 31.6236 52.8921 33.7537 53.6908 35.6921C55.0631 39.0778 58.0397 41.4234 61.4868 42.0659V43.0383C61.4868 43.4281 61.1363 43.7929 60.7321 43.7929H58.0649H57.9305V43.9273V47.4836V47.618H58.0649H60.7321C63.2054 47.618 65.3118 45.5855 65.3118 43.0383ZM66.6244 12.4482L66.6243 12.4482L66.6263 12.4516C66.7117 12.5966 66.7462 12.7659 66.7243 12.9327C66.7024 13.0996 66.6255 13.2543 66.5056 13.3723L66.5055 13.3722L66.5015 13.3765L65.3118 14.6555V12.8102C65.3118 12.4471 65.4801 12.1907 65.7825 12.1039C66.1171 12.013 66.4606 12.1504 66.6244 12.4482ZM58.6247 26.8255L61.4868 23.8153V26.9633C59.7627 28.1261 58.4705 30.0866 58.0058 31.9096L57.973 32.0386L58.1016 32.0727L61.4868 32.9708V38.1131C60.5523 37.8361 59.6883 37.3592 58.9553 36.7146C58.1784 36.0314 57.5695 35.1782 57.1759 34.2213C56.1467 31.6743 56.7054 28.7797 58.6231 26.8271L58.6232 26.8271L58.6247 26.8255ZM65.3118 29.7329C67.2528 29.815 68.9193 31.6641 68.9193 33.7031C68.9193 36.6634 66.8366 38.3589 65.3118 38.4543V29.7329Z" fill="url(#paint0_linear_393_1935)" stroke="url(#paint1_linear_393_1935)" stroke-width="0.268801"/>
<path d="M190.765 10.718H190.796H196.486H196.579L196.55 10.8065L185.17 44.9464L185.155 44.9924H185.106H179.416H179.324L179.352 44.9045L188.539 16.4384C185.61 18.3603 182.182 19.3861 178.676 19.3874H178.676L177.994 19.3874C177.994 19.3874 177.994 19.3874 177.994 19.3874H177.994V19.3202C177.105 19.3239 176.237 19.0499 175.511 18.5365C174.786 18.0231 174.239 17.2959 173.946 16.4565C173.654 15.6171 173.631 14.7074 173.88 13.8543C174.13 13.0012 174.64 12.2473 175.339 11.6979C176.037 11.1486 176.89 10.8311 177.778 10.7899C178.666 10.7486 179.545 10.9856 180.291 11.4679C181.038 11.9501 181.615 12.6535 181.943 13.4798C182.262 14.2828 182.329 15.1631 182.136 16.0041L190.765 10.718ZM190.765 10.718L190.744 10.7421C188.545 13.3737 185.548 15.2149 182.209 15.9875L190.765 10.718Z" fill="url(#paint2_linear_393_1935)" stroke="url(#paint3_linear_393_1935)" stroke-width="0.1344"/>
<path d="M2.70905 43.3008V11.1475H15.3217C22.6494 11.1475 26.824 15.633 26.824 21.9837C26.824 28.4232 22.5606 32.8199 15.144 32.8199H9.37064V43.3008H2.70905ZM9.37064 27.4462H14.0782C18.0307 27.4462 19.9404 25.2257 19.9404 21.9837C19.9404 18.7861 18.0307 16.61 14.0782 16.61H9.37064V27.4462ZM31.043 43.3008V11.1475H37.7046V37.7939H51.5607V43.3008H31.043Z" fill="url(#paint4_linear_393_1935)"/>
<path d="M104.861 11.1475V43.3008H99.0878L84.9652 22.8719H84.6988V43.3008H78.0372V11.1475H83.8994L97.9331 31.5764H98.244V11.1475H104.861ZM110.279 43.3008V11.1475H116.941V37.7939H130.797V43.3008H110.279ZM141.766 11.1475V43.3008H135.105V11.1475H141.766ZM164.638 20.3405C164.371 17.8091 162.329 16.2991 159.087 16.2991C155.711 16.2991 153.846 17.8535 153.802 19.9852C153.757 22.2946 156.2 23.3604 158.953 23.9822L161.84 24.6927C167.347 25.9362 171.477 28.7341 171.477 34.1078C171.477 40.0144 166.858 43.7449 159.042 43.7449C151.27 43.7449 146.296 40.1476 146.119 33.264H152.603C152.825 36.506 155.4 38.1491 158.953 38.1491C162.462 38.1491 164.727 36.506 164.727 34.1078C164.727 31.9317 162.728 30.9102 159.22 30.022L155.711 29.1782C150.293 27.8459 146.962 25.1368 146.962 20.4293C146.962 14.5671 152.114 10.7034 159.131 10.7034C166.237 10.7034 170.944 14.6559 171.033 20.3405H164.638Z" fill="url(#paint5_linear_393_1935)"/>
<defs>
<linearGradient id="paint0_linear_393_1935" x1="50.1276" y1="31.0114" x2="77.2764" y2="31.0786" gradientUnits="userSpaceOnUse">
<stop stop-color="#8EAFF3"/>
<stop offset="1" stop-color="#A3ACED"/>
</linearGradient>
<linearGradient id="paint1_linear_393_1935" x1="51.0012" y1="29.869" x2="74.454" y2="30.0706" gradientUnits="userSpaceOnUse">
<stop stop-color="#8EAFF3"/>
<stop offset="1" stop-color="#A3ACED"/>
</linearGradient>
<linearGradient id="paint2_linear_393_1935" x1="173.709" y1="28.5933" x2="198.371" y2="27.8541" gradientUnits="userSpaceOnUse">
<stop stop-color="#EC9FD7"/>
<stop offset="1" stop-color="#FD9CD2"/>
</linearGradient>
<linearGradient id="paint3_linear_393_1935" x1="174.179" y1="27.8541" x2="196.422" y2="27.8541" gradientUnits="userSpaceOnUse">
<stop stop-color="#EC9FD7"/>
<stop offset="1" stop-color="#FD9CD2"/>
</linearGradient>
<linearGradient id="paint4_linear_393_1935" x1="2.72727" y1="29.7736" x2="52.4318" y2="29.5649" gradientUnits="userSpaceOnUse">
<stop stop-color="#69B6FF"/>
<stop offset="1" stop-color="#8BB0F4"/>
</linearGradient>
<linearGradient id="paint5_linear_393_1935" x1="75.3281" y1="27.3008" x2="173.328" y2="27.3008" gradientUnits="userSpaceOnUse">
<stop stop-color="#A7ABEC"/>
<stop offset="1" stop-color="#E89FD8"/>
</linearGradient>
</defs>
</svg>
