<svg width="37" height="36" viewBox="0 0 37 36" fill="none" xmlns="http://www.w3.org/2000/svg">
<path fill-rule="evenodd" clip-rule="evenodd" d="M20.7722 15.75V7.875C20.7722 7.254 20.261 6.75 19.6312 6.75H17.3494C16.7196 6.75 16.2085 7.254 16.2085 7.875V15.75H8.22204C7.59225 15.75 7.08112 16.254 7.08112 16.875V19.125C7.08112 19.746 7.59225 20.25 8.22204 20.25H16.2085V28.125C16.2085 28.746 16.7196 29.25 17.3494 29.25H19.6312C20.261 29.25 20.7722 28.746 20.7722 28.125V20.25H28.7586C29.3884 20.25 29.8995 19.746 29.8995 19.125V16.875C29.8995 16.254 29.3884 15.75 28.7586 15.75H20.7722Z" fill="#333333"/>
</svg>
