<svg width="23" height="23" viewBox="0 0 23 23" fill="none" xmlns="http://www.w3.org/2000/svg">
<path d="M20.8222 12.7776H12.8362V20.7636C12.8362 21.1872 12.6679 21.5935 12.3684 21.893C12.0689 22.1925 11.6626 22.3608 11.239 22.3608C10.8154 22.3608 10.4091 22.1925 10.1096 21.893C9.81007 21.5935 9.64179 21.1872 9.64179 20.7636V12.7776H1.65579C1.23219 12.7776 0.825936 12.6093 0.526403 12.3098C0.22687 12.0103 0.0585938 11.604 0.0585938 11.1804C0.0585938 10.7568 0.22687 10.3505 0.526403 10.051C0.825936 9.75148 1.23219 9.5832 1.65579 9.5832H9.64179V1.5972C9.64179 1.1736 9.81007 0.767342 10.1096 0.467809C10.4091 0.168276 10.8154 0 11.239 0C11.6626 0 12.0689 0.168276 12.3684 0.467809C12.6679 0.767342 12.8362 1.1736 12.8362 1.5972V9.5832H20.8222C21.2458 9.5832 21.6521 9.75148 21.9516 10.051C22.2511 10.3505 22.4194 10.7568 22.4194 11.1804C22.4194 11.604 22.2511 12.0103 21.9516 12.3098C21.6521 12.6093 21.2458 12.7776 20.8222 12.7776Z" fill="black"/>
</svg>
