<svg width="17" height="17" viewBox="0 0 17 17" fill="none" xmlns="http://www.w3.org/2000/svg">
<path fill-rule="evenodd" clip-rule="evenodd" d="M11.935 13.1684C13.5773 13.3428 15.6719 13.0262 15.6719 12.2188C15.6719 10.8906 14.9635 8.94271 12.8385 8.94271C12.1478 8.94271 11.6067 9.14852 11.1911 9.47197C11.6956 10.33 11.9531 11.4581 11.9531 12.8828C11.9531 12.9802 11.9471 13.0754 11.935 13.1684ZM6.10938 7.17188C4.64237 7.17188 3.45312 5.98263 3.45312 4.51562C3.45312 3.04862 4.64237 1.85938 6.10938 1.85938C7.57638 1.85938 8.76562 3.04862 8.76562 4.51562C8.76562 5.98263 7.57638 7.17188 6.10938 7.17188ZM12.8385 8.23438C11.6649 8.23438 10.7135 7.28298 10.7135 6.10938C10.7135 4.93577 11.6649 3.98438 12.8385 3.98438C14.0121 3.98438 14.9635 4.93577 14.9635 6.10938C14.9635 7.28298 14.0121 8.23438 12.8385 8.23438ZM6.10938 8.23438C8.94271 8.23438 10.8906 9.29688 10.8906 13.0156C10.8906 14.0202 9.82812 15.1406 6.10938 15.1406C2.39062 15.1406 1.32812 14.136 1.32812 13.0156C1.32812 9.29688 3.27604 8.23438 6.10938 8.23438Z" fill="#858585"/>
</svg>
