<svg width="24" height="30" viewBox="0 0 24 30" fill="none" xmlns="http://www.w3.org/2000/svg">
<path id="Vector" d="M6.85714 30H1.71429C1.25963 30 0.823594 29.8563 0.502103 29.6006C0.180612 29.3449 0 28.998 0 28.6364V1.36364C0 1.00198 0.180612 0.655132 0.502103 0.3994C0.823594 0.143669 1.25963 0 1.71429 0H6.85714C7.3118 0 7.74783 0.143669 8.06933 0.3994C8.39082 0.655132 8.57143 1.00198 8.57143 1.36364V28.6364C8.57143 28.998 8.39082 29.3449 8.06933 29.6006C7.74783 29.8563 7.3118 30 6.85714 30ZM22.2857 30H17.1429C16.6882 30 16.2522 29.8563 15.9307 29.6006C15.6092 29.3449 15.4286 28.998 15.4286 28.6364V1.36364C15.4286 1.00198 15.6092 0.655132 15.9307 0.3994C16.2522 0.143669 16.6882 0 17.1429 0H22.2857C22.7404 0 23.1764 0.143669 23.4979 0.3994C23.8194 0.655132 24 1.00198 24 1.36364V28.6364C24 28.998 23.8194 29.3449 23.4979 29.6006C23.1764 29.8563 22.7404 30 22.2857 30Z" fill="black"/>
</svg>
