<svg width="30" height="30" viewBox="0 0 30 30" fill="none" xmlns="http://www.w3.org/2000/svg">
<circle cx="15" cy="15" r="14.5" fill="#6AB6FF" stroke="white"/>
<path fill-rule="evenodd" clip-rule="evenodd" d="M20.8857 19.5134L17.2195 22.3634C16.682 22.7822 16.2395 22.5647 16.2395 21.8734L16.2395 20.0009L8.74324 20.0009C8.5785 20.0024 8.4151 19.9711 8.26256 19.9089C8.11002 19.8466 7.97138 19.7547 7.8547 19.6384C7.73803 19.522 7.64566 19.3837 7.58296 19.2313C7.52026 19.079 7.48849 18.9157 7.48949 18.7509C7.48949 18.0559 8.05074 17.5009 8.74324 17.5009L16.2395 17.5009L16.2395 15.6284C16.2395 14.9347 16.677 14.7159 17.2195 15.1384L20.8845 17.9884C21.422 18.4072 21.4257 19.0922 20.8845 19.5134L20.8857 19.5134ZM9.11574 12.0134C8.57449 11.5922 8.57824 10.9072 9.11574 10.4884L12.7807 7.63841C13.3232 7.21716 13.7607 7.43466 13.7607 8.12841L13.7607 10.0009L21.257 10.0009C21.4215 10.0003 21.5845 10.0321 21.7367 10.0946C21.8889 10.1572 22.0272 10.2492 22.1437 10.3653C22.2602 10.4815 22.3526 10.6195 22.4156 10.7715C22.4786 10.9235 22.5109 11.0864 22.5107 11.2509C22.5107 11.9409 21.9632 12.5009 21.257 12.5009L13.7607 12.5009L13.7607 14.3734C13.7607 15.0647 13.3195 15.2822 12.7807 14.8634L9.11574 12.0134Z" fill="white"/>
</svg>
