<svg width="32" height="19" viewBox="0 0 32 19" fill="none" xmlns="http://www.w3.org/2000/svg">
<path id="Vector" d="M0.978073 7.74853L13.5704 0.295488C13.8819 0.107974 14.2386 0.00666198 14.6033 0.00213711C14.9679 -0.00238776 15.3271 0.0900405 15.6432 0.269765C15.9863 0.467395 16.2704 0.75132 16.4667 1.09271C16.6629 1.43409 16.7644 1.82078 16.7607 2.21349V7.42733L28.8096 0.293509C29.1212 0.105995 29.4779 0.00468338 29.8425 0.000158507C30.2071 -0.00436636 30.5663 0.0880619 30.8825 0.267786C31.2255 0.465416 31.5096 0.749341 31.7059 1.09073C31.9021 1.43211 32.0036 1.8188 31.9999 2.21151V16.7878C32.0038 17.1807 31.9024 17.5675 31.7061 17.909C31.5099 18.2506 31.2257 18.5346 30.8825 18.7322C30.5663 18.9119 30.2071 19.0044 29.8425 18.9998C29.4779 18.9953 29.1212 18.894 28.8096 18.7065L16.7607 11.5694V16.7852C16.765 17.1785 16.6639 17.5659 16.4676 17.9079C16.2713 18.2499 15.9869 18.5344 15.6432 18.7322C15.3271 18.9119 14.9679 19.0044 14.6033 18.9998C14.2386 18.9953 13.8819 18.894 13.5704 18.7065L0.978073 11.2534C0.678717 11.0679 0.431917 10.8102 0.260835 10.5045C0.089753 10.1988 0 9.85505 0 9.50561C0 9.15616 0.089753 8.81244 0.260835 8.50672C0.431917 8.20099 0.678717 7.94328 0.978073 7.75777V7.74853Z" fill="black"/>
</svg>
