<svg width="32" height="19" viewBox="0 0 32 19" fill="none" xmlns="http://www.w3.org/2000/svg">
<path id="Vector" d="M31.0219 7.74853L18.4296 0.295488C18.1181 0.107974 17.7614 0.00666198 17.3967 0.00213711C17.0321 -0.00238776 16.6729 0.0900405 16.3567 0.269765C16.0137 0.467395 15.7296 0.75132 15.5333 1.09271C15.3371 1.43409 15.2356 1.82078 15.2393 2.21349V7.42733L3.19036 0.293509C2.87884 0.105995 2.52213 0.00468338 2.1575 0.000158507C1.79287 -0.00436636 1.4337 0.0880619 1.11753 0.267786C0.774459 0.465416 0.490371 0.749341 0.294113 1.09073C0.0978546 1.43211 -0.00358246 1.8188 0.000103229 2.21151V16.7878C-0.00370057 17.1807 0.0976804 17.5675 0.293944 17.909C0.490208 18.2505 0.77436 18.5345 1.11753 18.7322C1.4337 18.9119 1.79287 19.0044 2.1575 18.9998C2.52213 18.9953 2.87884 18.894 3.19036 18.7065L15.2393 11.5694V16.7852C15.2351 17.1785 15.3362 17.5658 15.5325 17.9078C15.7288 18.2499 16.0132 18.5343 16.3567 18.7322C16.6729 18.9119 17.0321 19.0044 17.3967 18.9998C17.7614 18.9953 18.1181 18.894 18.4296 18.7065L31.0219 11.2534C31.3213 11.0679 31.5681 10.8102 31.7392 10.5045C31.9102 10.1988 32 9.85505 32 9.50561C32 9.15616 31.9102 8.81244 31.7392 8.50672C31.5681 8.20099 31.3213 7.94328 31.0219 7.75777V7.74853Z" fill="black"/>
</svg>
