<svg width="7" height="10" viewBox="0 0 7 10" fill="none" xmlns="http://www.w3.org/2000/svg">
<path d="M4.36254 5.00454L4.29128 5.07543L0.551636 8.79558C0.551447 8.79578 0.551258 8.79597 0.551069 8.79617C0.432042 8.91907 0.366282 9.0834 0.367771 9.25386C0.369262 9.4246 0.438099 9.58802 0.55962 9.70891C0.681158 9.82981 0.845678 9.89849 1.01777 9.89997C1.18959 9.90146 1.35503 9.83586 1.47861 9.71743L5.75312 5.46517C5.75312 5.46517 5.75313 5.46517 5.75313 5.46516C5.87599 5.34289 5.94492 5.1772 5.94492 5.00454C5.94492 4.83188 5.87599 4.66618 5.75313 4.54391C5.75313 4.54391 5.75312 4.54391 5.75312 4.5439L1.47797 0.291021C1.35505 0.16877 1.18823 0.1 1.01419 0.1C0.840155 0.1 0.673351 0.168762 0.550425 0.291L4.36254 5.00454ZM4.36254 5.00454L4.29128 4.93364M4.36254 5.00454L4.29128 4.93364M4.29128 4.93364L0.550425 1.21227C0.427552 1.09 0.358621 0.924298 0.358621 0.751634C0.358621 0.578981 0.427544 0.413289 0.550404 0.291021L4.29128 4.93364Z" fill="#858585" stroke="white" stroke-width="0.2"/>
</svg>
