<svg width="37" height="36" viewBox="0 0 37 36" fill="none" xmlns="http://www.w3.org/2000/svg">
<path d="M10.4092 20.7811C10.9988 20.7811 11.5642 20.5469 11.9811 20.13C12.398 19.7131 12.6323 19.1476 12.6323 18.558C12.6323 17.9685 12.398 17.403 11.9811 16.9861C11.5642 16.5692 10.9988 16.335 10.4092 16.335C9.81962 16.335 9.25418 16.5692 8.83728 16.9861C8.42038 17.403 8.18617 17.9685 8.18617 18.558C8.18617 19.1476 8.42038 19.7131 8.83728 20.13C9.25418 20.5469 9.81962 20.7811 10.4092 20.7811ZM12.6337 25.9845C12.6337 26.5741 12.3995 27.1396 11.9826 27.5565C11.5657 27.9734 11.0003 28.2076 10.4107 28.2076C9.82111 28.2076 9.25567 27.9734 8.83877 27.5565C8.42187 27.1396 8.18765 26.5741 8.18765 25.9845C8.18765 25.3949 8.42187 24.8295 8.83877 24.4126C9.25567 23.9957 9.82111 23.7615 10.4107 23.7615C11.0003 23.7615 11.5657 23.9957 11.9826 24.4126C12.3995 24.8295 12.6337 25.3949 12.6337 25.9845ZM18.5826 20.7811C19.1722 20.7811 19.7377 20.5469 20.1546 20.13C20.5715 19.7131 20.8057 19.1476 20.8057 18.558C20.8057 17.9685 20.5715 17.403 20.1546 16.9861C19.7377 16.5692 19.1722 16.335 18.5826 16.335C17.9931 16.335 17.4276 16.5692 17.0107 16.9861C16.5938 17.403 16.3596 17.9685 16.3596 18.558C16.3596 19.1476 16.5938 19.7131 17.0107 20.13C17.4276 20.5469 17.9931 20.7811 18.5826 20.7811ZM20.8072 25.9845C20.8072 26.5741 20.573 27.1396 20.1561 27.5565C19.7392 27.9734 19.1737 28.2076 18.5841 28.2076C17.9945 28.2076 17.4291 27.9734 17.0122 27.5565C16.5953 27.1396 16.3611 26.5741 16.3611 25.9845C16.3611 25.3949 16.5953 24.8295 17.0122 24.4126C17.4291 23.9957 17.9945 23.7615 18.5841 23.7615C19.1737 23.7615 19.7392 23.9957 20.1561 24.4126C20.573 24.8295 20.8072 25.3949 20.8072 25.9845ZM26.7472 20.7811C27.3367 20.7811 27.9022 20.5469 28.3191 20.13C28.736 19.7131 28.9702 19.1476 28.9702 18.558C28.9702 17.9685 28.736 17.403 28.3191 16.9861C27.9022 16.5692 27.3367 16.335 26.7472 16.335C26.1576 16.335 25.5921 16.5692 25.1752 16.9861C24.7583 17.403 24.5241 17.9685 24.5241 18.558C24.5241 19.1476 24.7583 19.7131 25.1752 20.13C25.5921 20.5469 26.1576 20.7811 26.7472 20.7811ZM36.4026 7.425C36.4026 5.45577 35.6203 3.56719 34.2279 2.17473C32.8354 0.782275 30.9469 0 28.9776 0H8.18765C6.21842 0 4.32985 0.782275 2.93739 2.17473C1.54494 3.56719 0.762665 5.45577 0.762665 7.425V28.215C0.762665 30.1842 1.54494 32.0728 2.93739 33.4653C4.32985 34.8577 6.21842 35.64 8.18765 35.64H28.9776C30.9469 35.64 32.8354 34.8577 34.2279 33.4653C35.6203 32.0728 36.4026 30.1842 36.4026 28.215V7.425ZM3.73266 11.88H33.4326V28.215C33.4326 29.3965 32.9633 30.5297 32.1278 31.3652C31.2923 32.2006 30.1592 32.67 28.9776 32.67H8.18765C7.00612 32.67 5.87297 32.2006 5.0375 31.3652C4.20202 30.5297 3.73266 29.3965 3.73266 28.215V11.88ZM8.18765 2.97H28.9776C30.1592 2.97 31.2923 3.43936 32.1278 4.27484C32.9633 5.11031 33.4326 6.24346 33.4326 7.425V8.91H3.73266V7.425C3.73266 6.24346 4.20202 5.11031 5.0375 4.27484C5.87297 3.43936 7.00612 2.97 8.18765 2.97Z" fill="current"/>
</svg>
