<svg width="35" height="34" viewBox="0 0 35 34" fill="none" xmlns="http://www.w3.org/2000/svg">
<path d="M7.38007 24.127L7.38 24.127C6.03103 24.9242 5.21074 25.7001 4.726 26.3498C4.24463 26.9949 4.08735 27.5256 4.08735 27.83C4.08735 28.5249 4.36338 29.1913 4.85473 29.6826C5.34607 30.174 6.01248 30.45 6.70735 30.45H28.4873C29.1822 30.45 29.8486 30.174 30.34 29.6826C30.8313 29.1913 31.1073 28.5249 31.1073 27.83C31.1073 27.5256 30.9501 26.9949 30.4687 26.3498C29.984 25.7001 29.1637 24.9242 27.8147 24.127L27.8146 24.127C25.3177 22.6529 21.6957 21.58 17.5973 21.58C13.499 21.58 9.87695 22.6529 7.38007 24.127ZM21.1612 12.0338C22.1063 11.0886 22.6373 9.80669 22.6373 8.47C22.6373 7.13331 22.1063 5.85136 21.1612 4.90618C20.216 3.961 18.934 3.43 17.5973 3.43C16.2607 3.43 14.9787 3.961 14.0335 4.90618C13.0883 5.85136 12.5573 7.13331 12.5573 8.47C12.5573 9.80669 13.0883 11.0886 14.0335 12.0338C14.9787 12.979 16.2607 13.51 17.5973 13.51C18.934 13.51 20.216 12.979 21.1612 12.0338ZM25.8673 8.47C25.8673 10.6633 24.996 12.7668 23.4451 14.3178C21.8942 15.8687 19.7907 16.74 17.5973 16.74C15.404 16.74 13.3005 15.8687 11.7496 14.3178C10.1986 12.7668 9.32735 10.6633 9.32735 8.47C9.32735 6.27666 10.1986 4.17315 11.7496 2.62223C13.3005 1.0713 15.404 0.2 17.5973 0.2C19.7907 0.2 21.8942 1.0713 23.4451 2.62223C24.996 4.17315 25.8673 6.27666 25.8673 8.47ZM0.857349 27.83C0.857349 25.5161 2.68747 23.1488 5.73525 21.3472C8.77218 19.5519 12.9715 18.35 17.5973 18.35C22.2232 18.35 26.4225 19.5519 29.4594 21.3472C32.5072 23.1488 34.3373 25.5161 34.3373 27.83C34.3373 29.3815 33.721 30.8695 32.6239 31.9666C31.5268 33.0637 30.0389 33.68 28.4873 33.68H6.70735C5.15583 33.68 3.66786 33.0637 2.57077 31.9666C1.47369 30.8695 0.857349 29.3815 0.857349 27.83Z" fill="current" stroke="none" stroke-width="0.4"/>
</svg>
