<svg width="37" height="34" viewBox="0 0 37 34" fill="none" xmlns="http://www.w3.org/2000/svg">
<path d="M20.1187 19.8231L20.154 19.8596L20.19 19.8237L33.6391 6.37698C33.6393 6.37678 33.6395 6.37658 33.6397 6.37638C33.9742 6.06499 34.4165 5.89549 34.8734 5.90355C35.3307 5.91162 35.767 6.09685 36.0904 6.42023C36.4137 6.74361 36.599 7.17988 36.607 7.63714C36.6151 8.09408 36.4456 8.53633 36.1342 8.87084C36.134 8.87106 36.1338 8.87129 36.1336 8.87151L21.3825 23.6274C21.2167 23.7931 21.0195 23.9241 20.8025 24.0127C20.5855 24.1014 20.353 24.1459 20.1186 24.1437C19.8841 24.1415 19.6525 24.0926 19.4372 24C19.2219 23.9073 19.0272 23.7726 18.8645 23.6039L18.8644 23.6038L13.0491 17.5925L13.049 17.5923C12.8863 17.426 12.7581 17.2293 12.6718 17.0133C12.5855 16.7973 12.5427 16.5664 12.5459 16.3338C12.5491 16.1013 12.5982 15.8716 12.6905 15.6581C12.7827 15.4446 12.9163 15.2514 13.0834 15.0897C13.2506 14.9279 13.4481 14.8008 13.6645 14.7157C13.8809 14.6305 14.1121 14.589 14.3446 14.5935C14.5772 14.5979 14.8066 14.6483 15.0196 14.7417C15.2326 14.8352 15.425 14.9697 15.5858 15.1378L15.586 15.138L20.1187 19.8231ZM4.35163 29.931C4.58793 30.1672 4.90841 30.3 5.24259 30.3H29.4426C29.7768 30.3 30.0972 30.1672 30.3335 29.931C30.5698 29.6947 30.7026 29.3742 30.7026 29.04V21.175C30.7026 20.7069 30.8885 20.258 31.2195 19.927C31.5505 19.596 31.9995 19.41 32.4676 19.41C32.9357 19.41 33.3846 19.596 33.7156 19.927C34.0466 20.258 34.2326 20.7069 34.2326 21.175V29.04C34.2326 30.3104 33.7279 31.5287 32.8296 32.427C31.9313 33.3253 30.713 33.83 29.4426 33.83H5.24259C3.9722 33.83 2.75385 33.3253 1.85555 32.427C0.957247 31.5287 0.452588 30.3104 0.452588 29.04V4.84C0.452588 3.56961 0.957247 2.35126 1.85555 1.45296C2.75385 0.554659 3.9722 0.05 5.24259 0.05H27.6276C28.0957 0.05 28.5446 0.235955 28.8756 0.566957C29.2066 0.897958 29.3926 1.34689 29.3926 1.815C29.3926 2.28311 29.2066 2.73204 28.8756 3.06304C28.5446 3.39405 28.0957 3.58 27.6276 3.58H5.24259C4.90841 3.58 4.58793 3.71275 4.35163 3.94905C4.11534 4.18534 3.98259 4.50583 3.98259 4.84V29.04C3.98259 29.3742 4.11534 29.6947 4.35163 29.931Z" fill="current" stroke="none" stroke-width="0.1"/>
</svg>
